PathFileType	4	(X/Y/Z)	C:/Users/beibeiliu/ov580/test_trc/User1\sequence.12_training_dense_right.trc
DataRate	CameraRate	NumFrames	NumMarkers	Units	OrigDataRate	OrigDataStartFrame	OrigNumFrames
120	120	8	19	mm	120	191	304
Frame#	Time	ThumbCMC			ThumbMCP			ThumbIP			ThumbTip			IndexMCP			IndexPIP			IndexTip			MiddleMCP			MiddlePIP			MiddleTip			RingMCP			RingPIP			RingTip			PinkyMCP			PinkyPIP			PinkyTip			BackHand1			BackHand2			BackHand3	
		X0	Y0	Z0	X1	Y1	Z1	X2	Y2	Z2	X3	Y3	Z3	X4	Y4	Z4	X5	Y5	Z5	X6	Y6	Z6	X7	Y7	Z7	X8	Y8	Z8	X9	Y9	Z9	X10	Y10	Z10	X11	Y11	Z11	X12	Y12	Z12	X13	Y13	Z13	X14	Y14	Z14	X15	Y15	Z15	X16	Y16	Z16	X17	Y17	Z17	X18	Y18	Z18	
190	1.58333	135.868	42.2252	34.1254	126.118	35.4024	-0.92913	117.593	35.7859	-25.7443	114.83	33.4714	-53.8589	165.147	99.7065	-11.459	168.122	123.622	-31.7206	170.528	133.037	-61.4081	198.564	98.4157	-8.42869	211.937	123.973	-32.6395	220.477	132.17	-64.7271	218.246	87.762	-9.38858	228.146	105.173	-29.3995	236.254	110.546	-60.5649	231.433	52.8236	-7.68822	244.908	58.8967	-30.8588	251.691	61.6523	-55.3675	208.593	58.7557	27.9721	200.021	47.3888	62.1322	169.221	67.4105	41.2434	
191	1.59167	142.057	49.353	27.2606	131.404	39.066	-0.222097	120.192	43.383	-31.4308	115.549	38.012	-52.7356	182.458	101.261	-15.1476	186.679	121.781	-34.4433	188.417	129.005	-61.2478	215.046	97.4621	-10.5663	228.516	115.53	-30.8484	236.835	122.527	-64.528	229.217	76.8867	-6.03624	241.136	96.2205	-29.7266	247.482	99.4748	-59.0848	242.151	42.7208	-6.97668	255.153	44.8228	-29.0548	258.096	50.1871	-57.3396	210.592	56.729	30.1078	201.319	44.5233	60.2732	179.984	66.3911	37.2476	
192	1.6	144.441	54.992	25.9541	129.611	46.6133	-4.62332	127.664	49.9487	-32.2645	120.257	44.4311	-55.6967	190.259	99.5065	-15.5425	204.065	116.151	-35.4404	206.887	123.024	-68.6848	226.441	90.3638	-10.0005	242.153	107.453	-34.0408	252.248	110.872	-66.4376	238.19	73.0503	-8.78191	255.632	83.353	-29.4398	258.839	86.2048	-62.379	244.009	36.5274	-8.96386	258.973	34.3236	-29.6568	266.448	33.5965	-53.1826	215.656	49.5802	29.5941	204.614	43.0424	57.5221	182.432	66.2096	41.006	
193	1.60833	150.298	57.9882	27.5093	136.527	54.5053	-9.14198	129.696	54.6435	-30.3202	125.451	51.4051	-58.4191	203.378	94.4948	-15.2053	217.92	112.695	-37.1112	221.802	116.157	-70.2198	236.029	84.3946	-11.4571	254.243	96.2647	-31.6318	265.083	95.5444	-65.3484	244.904	59.3637	-5.44233	263.489	72.2862	-32.8997	269.622	68.7231	-63.4835	246.815	21.2929	-3.98366	261.849	19.4406	-29.7878	267.069	17.2991	-55.473	224.059	44.8508	29.6916	208.937	35.6257	62.3721	189.377	64.694	41.0177	
194	1.61667	155.122	65.4702	24.5826	141.435	61.3957	-8.9981	136.863	63.7586	-35.356	133.419	57.546	-58.6201	221.477	90.8909	-16.9957	235.42	105.227	-39.7615	242.288	102.319	-68.3861	249.554	72.9257	-9.41078	271.014	79.3063	-32.6003	279.206	77.1254	-65.2546	253.02	48.0194	-6.96191	273.226	51.8106	-30.7527	277.939	46.1092	-59.2529	247.456	13.92	-7.98173	257.99	4.17331	-25.2132	262.113	5.44574	-52.5117	224.345	38.1621	29.2208	209.876	33.0882	61.4101	197.728	65.1358	38.7232	
195	1.625	165.835	68.1422	21.5599	151.919	64.9537	-11.9493	146.049	66.5675	-35.2678	144.473	60.8177	-60.9286	232.841	83.3964	-17.5759	249.91	95.1231	-39.4477	254.654	94.5384	-71.8242	255.104	63.2674	-9.61704	278.726	65.5321	-33.1128	287.937	56.617	-62.8215	257.983	32.815	-7.59637	276.8	33.5707	-30.5181	279.601	27.4851	-60.9871	244.563	-0.774958	-6.91383	251.966	-11.8874	-25.5086	256.473	-10.7552	-56.2672	221.87	32.0354	31.4331	208.138	26.9589	60.1177	202.813	59.0926	39.3365	
196	1.63333	171.524	70.5297	21.6588	159.206	68.9438	-12.9675	154.573	70.5172	-37.0623	148.369	67.4273	-63.4582	243.387	75.4067	-16.3701	261.947	80.6657	-38.5995	267.225	79.4952	-69.0512	262.239	48.3905	-10.0322	285.523	47.0098	-33.2104	292.148	38.7499	-68.0372	257.17	22.6184	-7.346	277.655	14.4144	-31.7171	277.946	7.05946	-60.6489	237.195	-8.25156	-7.16247	243.519	-23.5172	-30.4911	248.957	-29.1131	-52.1539	227.322	21.1553	31.8601	205.284	21.0398	62.2272	208.731	54.5241	38.3906	
197	1.64167	178.412	72.1598	23.105	166.227	74.3018	-14.3103	162.563	77.3708	-39.0834	155.89	70.8047	-60.884	248.665	63.1233	-15.6344	271.465	65.0928	-40.7384	274.722	59.3138	-67.032	260.169	36.3005	-8.09708	285.055	31.0331	-29.9563	291.699	18.9695	-68.0953	254.039	10.2741	-8.05965	272.751	-3.10308	-33.5575	272.466	-6.53306	-60.1714	226.842	-20.7398	-4.38405	232.063	-32.4003	-30.405	234.954	-35.3	-54.0947	223.005	15.6027	29.7624	202.411	21.1652	61.7381	213.924	53.8992	39.3838	
